<?xml version="1.0" encoding="UTF-8" standalone="no"?>
<!DOCTYPE svg PUBLIC "-//W3C//DTD SVG 1.1//EN"
 "http://www.w3.org/Graphics/SVG/1.1/DTD/svg11.dtd">
<!-- Generated by graphviz version 2.26.3 (20100126.1600)
 -->
<!-- Title: G Pages: 1 -->
<svg width="2998pt" height="2452pt"
 viewBox="0.00 0.00 2997.80 2451.61" xmlns="http://www.w3.org/2000/svg" xmlns:xlink="http://www.w3.org/1999/xlink">
<g id="graph1" class="graph" transform="scale(1 1) rotate(0) translate(4 2447.61)">
<title>G</title>
<polygon fill="white" stroke="white" points="-4,5 -4,-2447.61 2994.8,-2447.61 2994.8,5 -4,5"/>
<!-- hitchin -->
<g id="node1" class="node"><title>hitchin</title>
<ellipse fill="none" stroke="black" cx="1083.58" cy="-771.395" rx="43.9728" ry="18"/>
<text text-anchor="middle" x="1083.58" y="-767.295" font-family="Times Roman,serif" font-size="14.00">hitchin</text>
</g>
<!-- stevenage -->
<g id="node3" class="node"><title>stevenage</title>
<ellipse fill="none" stroke="black" cx="888.322" cy="-845.848" rx="61.1496" ry="18"/>
<text text-anchor="middle" x="888.322" y="-841.748" font-family="Times Roman,serif" font-size="14.00">stevenage</text>
</g>
<!-- hitchin&#45;&#45;stevenage -->
<g id="edge2" class="edge"><title>hitchin&#45;&#45;stevenage</title>
<path fill="none" stroke="black" d="M1051.34,-783.689C1016.89,-796.823 962.351,-817.62 925.963,-831.495"/>
</g>
<!-- whitwell -->
<g id="node5" class="node"><title>whitwell</title>
<ellipse fill="none" stroke="black" cx="1216.83" cy="-876.951" rx="53.0059" ry="18"/>
<text text-anchor="middle" x="1216.83" y="-872.851" font-family="Times Roman,serif" font-size="14.00">whitwell</text>
</g>
<!-- hitchin&#45;&#45;whitwell -->
<g id="edge4" class="edge"><title>hitchin&#45;&#45;whitwell</title>
<path fill="none" stroke="black" d="M1103.82,-787.426C1128.57,-807.035 1170.29,-840.08 1195.52,-860.068"/>
</g>
<!-- knebworth -->
<g id="node7" class="node"><title>knebworth</title>
<ellipse fill="none" stroke="black" cx="906.651" cy="-725.216" rx="63.9292" ry="18"/>
<text text-anchor="middle" x="906.651" y="-721.116" font-family="Times Roman,serif" font-size="14.00">knebworth</text>
</g>
<!-- stevenage&#45;&#45;knebworth -->
<g id="edge6" class="edge"><title>stevenage&#45;&#45;knebworth</title>
<path fill="none" stroke="black" d="M891.066,-827.788C894.521,-805.046 900.424,-766.199 903.888,-743.399"/>
</g>
<!-- codicoteroad -->
<g id="node101" class="node"><title>codicoteroad</title>
<ellipse fill="none" stroke="black" cx="910.424" cy="-1050.15" rx="71.7694" ry="18"/>
<text text-anchor="middle" x="910.424" y="-1046.05" font-family="Times Roman,serif" font-size="14.00">codicoteroad</text>
</g>
<!-- whitwell&#45;&#45;codicoteroad -->
<g id="edge101" class="edge"><title>whitwell&#45;&#45;codicoteroad</title>
<path fill="none" stroke="black" d="M1189.37,-892.474C1131.79,-925.023 998.865,-1000.16 939.721,-1033.59"/>
</g>
<!-- woolmergreen -->
<g id="node9" class="node"><title>woolmergreen</title>
<ellipse fill="none" stroke="black" cx="796.615" cy="-675.053" rx="80.1057" ry="18"/>
<text text-anchor="middle" x="796.615" y="-670.953" font-family="Times Roman,serif" font-size="14.00">woolmergreen</text>
</g>
<!-- knebworth&#45;&#45;woolmergreen -->
<g id="edge8" class="edge"><title>knebworth&#45;&#45;woolmergreen</title>
<path fill="none" stroke="black" d="M873.039,-709.893C860.145,-704.015 845.394,-697.29 832.312,-691.326"/>
</g>
<!-- mardleyburyroadandwhitehorselane -->
<g id="node11" class="node"><title>mardleyburyroadandwhitehorselane</title>
<ellipse fill="none" stroke="black" cx="989.592" cy="-525.717" rx="185.033" ry="18"/>
<text text-anchor="middle" x="989.592" y="-521.617" font-family="Times Roman,serif" font-size="14.00">mardleyburyroadandwhitehorselane</text>
</g>
<!-- woolmergreen&#45;&#45;mardleyburyroadandwhitehorselane -->
<g id="edge10" class="edge"><title>woolmergreen&#45;&#45;mardleyburyroadandwhitehorselane</title>
<path fill="none" stroke="black" d="M819.13,-657.63C856.016,-629.085 928.949,-572.646 966.321,-543.725"/>
</g>
<!-- robberybottomlaneetc -->
<g id="node13" class="node"><title>robberybottomlaneetc</title>
<ellipse fill="none" stroke="black" cx="542.037" cy="-982.653" rx="118.13" ry="18"/>
<text text-anchor="middle" x="542.037" y="-978.553" font-family="Times Roman,serif" font-size="14.00">robberybottomlaneetc</text>
</g>
<!-- mardleyburyroadandwhitehorselane&#45;&#45;robberybottomlaneetc -->
<g id="edge12" class="edge"><title>mardleyburyroadandwhitehorselane&#45;&#45;robberybottomlaneetc</title>
<path fill="none" stroke="black" d="M977.593,-544.047C958.213,-573.105 918.145,-630.973 878.215,-675.124 769.712,-795.098 620.035,-919.637 564.205,-964.89"/>
</g>
<!-- burnhamgreen -->
<g id="node15" class="node"><title>burnhamgreen</title>
<ellipse fill="none" stroke="black" cx="1414.7" cy="-574.979" rx="82.1898" ry="18"/>
<text text-anchor="middle" x="1414.7" y="-570.879" font-family="Times Roman,serif" font-size="14.00">burnhamgreen</text>
</g>
<!-- mardleyburyroadandwhitehorselane&#45;&#45;burnhamgreen -->
<g id="edge14" class="edge"><title>mardleyburyroadandwhitehorselane&#45;&#45;burnhamgreen</title>
<path fill="none" stroke="black" d="M1108.57,-539.505C1183.61,-548.2 1278.09,-559.149 1342.1,-566.566"/>
</g>
<!-- wattonatstone -->
<g id="node88" class="node"><title>wattonatstone</title>
<ellipse fill="none" stroke="black" cx="170.994" cy="-1601.27" rx="82.1898" ry="18"/>
<text text-anchor="middle" x="170.994" y="-1597.17" font-family="Times Roman,serif" font-size="14.00">wattonatstone</text>
</g>
<!-- robberybottomlaneetc&#45;&#45;wattonatstone -->
<g id="edge89" class="edge"><title>robberybottomlaneetc&#45;&#45;wattonatstone</title>
<path fill="none" stroke="black" d="M531.133,-1000.83C476.788,-1091.44 235.654,-1493.47 181.72,-1583.39"/>
</g>
<!-- nwsestockinggrovefootpath -->
<g id="node90" class="node"><title>nwsestockinggrovefootpath</title>
<ellipse fill="none" stroke="black" cx="145.5" cy="-1017" rx="144.035" ry="18"/>
<text text-anchor="middle" x="145.5" y="-1012.9" font-family="Times Roman,serif" font-size="14.00">nwsestockinggrovefootpath</text>
</g>
<!-- robberybottomlaneetc&#45;&#45;nwsestockinggrovefootpath -->
<g id="edge91" class="edge"><title>robberybottomlaneetc&#45;&#45;nwsestockinggrovefootpath</title>
<path fill="none" stroke="black" d="M439.403,-991.543C385.82,-996.185 319.983,-1001.89 264.213,-1006.72"/>
</g>
<!-- footpathpastcookswood -->
<g id="node17" class="node"><title>footpathpastcookswood</title>
<ellipse fill="none" stroke="black" cx="1154.41" cy="-229.439" rx="125.079" ry="18"/>
<text text-anchor="middle" x="1154.41" y="-225.339" font-family="Times Roman,serif" font-size="14.00">footpathpastcookswood</text>
</g>
<!-- burnhamgreen&#45;&#45;footpathpastcookswood -->
<g id="edge16" class="edge"><title>burnhamgreen&#45;&#45;footpathpastcookswood</title>
<path fill="none" stroke="black" d="M1401.07,-556.888C1356.09,-497.177 1212.68,-306.8 1167.9,-247.351"/>
</g>
<!-- footpaththroughlittlehillfootwood -->
<g id="node19" class="node"><title>footpaththroughlittlehillfootwood</title>
<ellipse fill="none" stroke="black" cx="1646.43" cy="-219.412" rx="171.136" ry="18"/>
<text text-anchor="middle" x="1646.43" y="-215.312" font-family="Times Roman,serif" font-size="14.00">footpaththroughlittlehillfootwood</text>
</g>
<!-- burnhamgreen&#45;&#45;footpaththroughlittlehillfootwood -->
<g id="edge18" class="edge"><title>burnhamgreen&#45;&#45;footpaththroughlittlehillfootwood</title>
<path fill="none" stroke="black" d="M1426.51,-556.858C1466.26,-495.863 1594.93,-298.437 1634.65,-237.497"/>
</g>
<!-- tewin -->
<g id="node126" class="node"><title>tewin</title>
<ellipse fill="none" stroke="black" cx="1938.21" cy="-688.578" rx="38.9134" ry="18"/>
<text text-anchor="middle" x="1938.21" y="-684.478" font-family="Times Roman,serif" font-size="14.00">tewin</text>
</g>
<!-- burnhamgreen&#45;&#45;tewin -->
<g id="edge127" class="edge"><title>burnhamgreen&#45;&#45;tewin</title>
<path fill="none" stroke="black" d="M1473.23,-587.68C1582.49,-611.388 1814.42,-661.716 1902.9,-680.916"/>
</g>
<!-- kimpton -->
<g id="node20" class="node"><title>kimpton</title>
<ellipse fill="none" stroke="black" cx="1383.86" cy="-1014.6" rx="50.2242" ry="18"/>
<text text-anchor="middle" x="1383.86" y="-1010.5" font-family="Times Roman,serif" font-size="14.00">kimpton</text>
</g>
<!-- parkdovehousewoodsfootpath -->
<g id="node22" class="node"><title>parkdovehousewoodsfootpath</title>
<ellipse fill="none" stroke="black" cx="1255.17" cy="-1144.32" rx="155.153" ry="18"/>
<text text-anchor="middle" x="1255.17" y="-1140.22" font-family="Times Roman,serif" font-size="14.00">parkdovehousewoodsfootpath</text>
</g>
<!-- kimpton&#45;&#45;parkdovehousewoodsfootpath -->
<g id="edge20" class="edge"><title>kimpton&#45;&#45;parkdovehousewoodsfootpath</title>
<path fill="none" stroke="black" d="M1367.04,-1031.55C1342.78,-1056 1298.17,-1100.97 1273.24,-1126.1"/>
</g>
<!-- claggbottomfootpath -->
<g id="node36" class="node"><title>claggbottomfootpath</title>
<ellipse fill="none" stroke="black" cx="1468.05" cy="-1279.2" rx="111.181" ry="18"/>
<text text-anchor="middle" x="1468.05" y="-1275.1" font-family="Times Roman,serif" font-size="14.00">claggbottomfootpath</text>
</g>
<!-- kimpton&#45;&#45;claggbottomfootpath -->
<g id="edge34" class="edge"><title>kimpton&#45;&#45;claggbottomfootpath</title>
<path fill="none" stroke="black" d="M1389.65,-1032.78C1405.03,-1081.12 1446.8,-1212.4 1462.22,-1260.88"/>
</g>
<!-- cuckoldscrossfootpath -->
<g id="node24" class="node"><title>cuckoldscrossfootpath</title>
<ellipse fill="none" stroke="black" cx="1312.76" cy="-1385.49" rx="116.045" ry="18"/>
<text text-anchor="middle" x="1312.76" y="-1381.39" font-family="Times Roman,serif" font-size="14.00">cuckoldscrossfootpath</text>
</g>
<!-- parkdovehousewoodsfootpath&#45;&#45;cuckoldscrossfootpath -->
<g id="edge22" class="edge"><title>parkdovehousewoodsfootpath&#45;&#45;cuckoldscrossfootpath</title>
<path fill="none" stroke="black" d="M1268.41,-1162.45C1278.17,-1176.83 1290.81,-1197.84 1297.24,-1218.27 1313.7,-1270.55 1314.35,-1336.23 1313.54,-1367.43"/>
</g>
<!-- xmasandxmhillwoodfootpath -->
<g id="node26" class="node"><title>xmasandxmhillwoodfootpath</title>
<ellipse fill="none" stroke="black" cx="1146.64" cy="-1218.16" rx="148.9" ry="18"/>
<text text-anchor="middle" x="1146.64" y="-1214.06" font-family="Times Roman,serif" font-size="14.00">xmasandxmhillwoodfootpath</text>
</g>
<!-- cuckoldscrossfootpath&#45;&#45;xmasandxmhillwoodfootpath -->
<g id="edge24" class="edge"><title>cuckoldscrossfootpath&#45;&#45;xmasandxmhillwoodfootpath</title>
<path fill="none" stroke="black" d="M1306.97,-1367.37C1301.88,-1353.32 1293.45,-1333.89 1281.79,-1319.57 1252.72,-1283.85 1208.48,-1253.8 1178.6,-1235.9"/>
</g>
<!-- throughryeendtokimptonmillpond -->
<g id="node28" class="node"><title>throughryeendtokimptonmillpond</title>
<ellipse fill="none" stroke="black" cx="1108.2" cy="-1319.46" rx="171.831" ry="18"/>
<text text-anchor="middle" x="1108.2" y="-1315.36" font-family="Times Roman,serif" font-size="14.00">throughryeendtokimptonmillpond</text>
</g>
<!-- xmasandxmhillwoodfootpath&#45;&#45;throughryeendtokimptonmillpond -->
<g id="edge26" class="edge"><title>xmasandxmhillwoodfootpath&#45;&#45;throughryeendtokimptonmillpond</title>
<path fill="none" stroke="black" d="M1139.77,-1236.27C1132.81,-1254.59 1122.12,-1282.77 1115.14,-1301.17"/>
</g>
<!-- kimptonmill -->
<g id="node30" class="node"><title>kimptonmill</title>
<ellipse fill="none" stroke="black" cx="1114.75" cy="-1500.24" rx="66.9043" ry="18"/>
<text text-anchor="middle" x="1114.75" y="-1496.14" font-family="Times Roman,serif" font-size="14.00">kimptonmill</text>
</g>
<!-- throughryeendtokimptonmillpond&#45;&#45;kimptonmill -->
<g id="edge28" class="edge"><title>throughryeendtokimptonmillpond&#45;&#45;kimptonmill</title>
<path fill="none" stroke="black" d="M1108.86,-1337.79C1110.12,-1372.53 1112.84,-1447.57 1114.09,-1482.14"/>
</g>
<!-- codicotebottom -->
<g id="node32" class="node"><title>codicotebottom</title>
<ellipse fill="none" stroke="black" cx="923.705" cy="-1389.32" rx="84.7756" ry="18"/>
<text text-anchor="middle" x="923.705" y="-1385.22" font-family="Times Roman,serif" font-size="14.00">codicotebottom</text>
</g>
<!-- kimptonmill&#45;&#45;codicotebottom -->
<g id="edge30" class="edge"><title>kimptonmill&#45;&#45;codicotebottom</title>
<path fill="none" stroke="black" d="M1086.56,-1483.88C1050.75,-1463.09 989.256,-1427.38 952.951,-1406.3"/>
</g>
<!-- codicote -->
<g id="node34" class="node"><title>codicote</title>
<ellipse fill="none" stroke="black" cx="735.094" cy="-1236.78" rx="50.2242" ry="18"/>
<text text-anchor="middle" x="735.094" y="-1232.68" font-family="Times Roman,serif" font-size="14.00">codicote</text>
</g>
<!-- codicotebottom&#45;&#45;codicote -->
<g id="edge32" class="edge"><title>codicotebottom&#45;&#45;codicote</title>
<path fill="none" stroke="black" d="M902.069,-1371.82C865.396,-1342.16 791.523,-1282.42 755.618,-1253.38"/>
</g>
<!-- saintalbansroad -->
<g id="node106" class="node"><title>saintalbansroad</title>
<ellipse fill="none" stroke="black" cx="1293.66" cy="-1700.68" rx="86.8603" ry="18"/>
<text text-anchor="middle" x="1293.66" y="-1696.58" font-family="Times Roman,serif" font-size="14.00">saintalbansroad</text>
</g>
<!-- codicote&#45;&#45;saintalbansroad -->
<g id="edge107" class="edge"><title>codicote&#45;&#45;saintalbansroad</title>
<path fill="none" stroke="black" d="M744.198,-1254.81C760.082,-1285.06 795.195,-1346.89 837.108,-1389.17 974.233,-1527.52 1180.97,-1642.33 1260.69,-1683.94"/>
</g>
<!-- ayotsaintlawrence -->
<g id="node38" class="node"><title>ayotsaintlawrence</title>
<ellipse fill="none" stroke="black" cx="1669.65" cy="-1232.12" rx="100.063" ry="18"/>
<text text-anchor="middle" x="1669.65" y="-1228.02" font-family="Times Roman,serif" font-size="14.00">ayotsaintlawrence</text>
</g>
<!-- claggbottomfootpath&#45;&#45;ayotsaintlawrence -->
<g id="edge36" class="edge"><title>claggbottomfootpath&#45;&#45;ayotsaintlawrence</title>
<path fill="none" stroke="black" d="M1531.56,-1264.37C1556.14,-1258.62 1584.17,-1252.08 1608.52,-1246.39"/>
</g>
<!-- bridehalllanefootpath -->
<g id="node40" class="node"><title>bridehalllanefootpath</title>
<ellipse fill="none" stroke="black" cx="1616.94" cy="-900.03" rx="113.961" ry="18"/>
<text text-anchor="middle" x="1616.94" y="-895.93" font-family="Times Roman,serif" font-size="14.00">bridehalllanefootpath</text>
</g>
<!-- ayotsaintlawrence&#45;&#45;bridehalllanefootpath -->
<g id="edge38" class="edge"><title>ayotsaintlawrence&#45;&#45;bridehalllanefootpath</title>
<path fill="none" stroke="black" d="M1666.74,-1213.79C1657.52,-1155.73 1629.04,-976.282 1619.84,-918.301"/>
</g>
<!-- ayotsaintlawrence&#45;&#45;bridehalllanefootpath -->
<g id="edge42" class="edge"><title>ayotsaintlawrence&#45;&#45;bridehalllanefootpath</title>
<path fill="none" stroke="black" d="M1666.74,-1213.79C1657.52,-1155.73 1629.04,-976.282 1619.84,-918.301"/>
</g>
<!-- oldchurchruins -->
<g id="node42" class="node"><title>oldchurchruins</title>
<ellipse fill="none" stroke="black" cx="1972.17" cy="-1154.07" rx="81.9961" ry="18"/>
<text text-anchor="middle" x="1972.17" y="-1149.97" font-family="Times Roman,serif" font-size="14.00">oldchurchruins</text>
</g>
<!-- ayotsaintlawrence&#45;&#45;oldchurchruins -->
<g id="edge40" class="edge"><title>ayotsaintlawrence&#45;&#45;oldchurchruins</title>
<path fill="none" stroke="black" d="M1726.9,-1217.35C1782.15,-1203.09 1865.11,-1181.69 1918.95,-1167.8"/>
</g>
<!-- dowdellfishbladderwood -->
<g id="node44" class="node"><title>dowdellfishbladderwood</title>
<ellipse fill="none" stroke="black" cx="1504.49" cy="-1487.55" rx="125.969" ry="18"/>
<text text-anchor="middle" x="1504.49" y="-1483.45" font-family="Times Roman,serif" font-size="14.00">dowdellfishbladderwood</text>
</g>
<!-- bridehalllanefootpath&#45;&#45;dowdellfishbladderwood -->
<g id="edge43" class="edge"><title>bridehalllanefootpath&#45;&#45;dowdellfishbladderwood</title>
<path fill="none" stroke="black" d="M1611.6,-918.27C1597.54,-968.186 1561.11,-1111.36 1568.05,-1232.06 1569.29,-1253.73 1581.62,-1257.56 1580.65,-1279.25 1577.32,-1353.49 1535.73,-1434.18 1515.46,-1469.4"/>
</g>
<!-- crossroadpastbowles -->
<g id="node46" class="node"><title>crossroadpastbowles</title>
<ellipse fill="none" stroke="black" cx="1695.02" cy="-1528.71" rx="109.986" ry="18"/>
<text text-anchor="middle" x="1695.02" y="-1524.61" font-family="Times Roman,serif" font-size="14.00">crossroadpastbowles</text>
</g>
<!-- dowdellfishbladderwood&#45;&#45;crossroadpastbowles -->
<g id="edge45" class="edge"><title>dowdellfishbladderwood&#45;&#45;crossroadpastbowles</title>
<path fill="none" stroke="black" d="M1574.09,-1502.58C1591.84,-1506.42 1610.88,-1510.53 1628.47,-1514.33"/>
</g>
<!-- ayotgreenacrossthea1 -->
<g id="node48" class="node"><title>ayotgreenacrossthea1</title>
<ellipse fill="none" stroke="black" cx="1508.75" cy="-1756.01" rx="118.13" ry="18"/>
<text text-anchor="middle" x="1508.75" y="-1751.91" font-family="Times Roman,serif" font-size="14.00">ayotgreenacrossthea1</text>
</g>
<!-- crossroadpastbowles&#45;&#45;ayotgreenacrossthea1 -->
<g id="edge47" class="edge"><title>crossroadpastbowles&#45;&#45;ayotgreenacrossthea1</title>
<path fill="none" stroke="black" d="M1680.09,-1546.93C1645.13,-1589.59 1558.27,-1695.59 1523.49,-1738.02"/>
</g>
<!-- sherradsfootpaths -->
<g id="node50" class="node"><title>sherradsfootpaths</title>
<ellipse fill="none" stroke="black" cx="1669.45" cy="-1853.2" rx="97.9784" ry="18"/>
<text text-anchor="middle" x="1669.45" y="-1849.1" font-family="Times Roman,serif" font-size="14.00">sherradsfootpaths</text>
</g>
<!-- ayotgreenacrossthea1&#45;&#45;sherradsfootpaths -->
<g id="edge49" class="edge"><title>ayotgreenacrossthea1&#45;&#45;sherradsfootpaths</title>
<path fill="none" stroke="black" d="M1537.85,-1773.61C1567.06,-1791.28 1611.79,-1818.33 1640.83,-1835.89"/>
</g>
<!-- dismantledrailway -->
<g id="node52" class="node"><title>dismantledrailway</title>
<ellipse fill="none" stroke="black" cx="1773.6" cy="-1724.06" rx="98.8688" ry="18"/>
<text text-anchor="middle" x="1773.6" y="-1719.96" font-family="Times Roman,serif" font-size="14.00">dismantledrailway</text>
</g>
<!-- sherradsfootpaths&#45;&#45;dismantledrailway -->
<g id="edge51" class="edge"><title>sherradsfootpaths&#45;&#45;dismantledrailway</title>
<path fill="none" stroke="black" d="M1683.93,-1835.24C1703.72,-1810.71 1739.01,-1766.95 1758.91,-1742.28"/>
</g>
<!-- templewoodgreenspace -->
<g id="node54" class="node"><title>templewoodgreenspace</title>
<ellipse fill="none" stroke="black" cx="1953.6" cy="-1577.21" rx="123.884" ry="18"/>
<text text-anchor="middle" x="1953.6" y="-1573.11" font-family="Times Roman,serif" font-size="14.00">templewoodgreenspace</text>
</g>
<!-- dismantledrailway&#45;&#45;templewoodgreenspace -->
<g id="edge53" class="edge"><title>dismantledrailway&#45;&#45;templewoodgreenspace</title>
<path fill="none" stroke="black" d="M1795.32,-1706.34C1829.91,-1678.12 1897.17,-1623.25 1931.81,-1594.98"/>
</g>
<!-- digswellroad -->
<g id="node56" class="node"><title>digswellroad</title>
<ellipse fill="none" stroke="black" cx="2057.12" cy="-1782.19" rx="71.0724" ry="18"/>
<text text-anchor="middle" x="2057.12" y="-1778.09" font-family="Times Roman,serif" font-size="14.00">digswellroad</text>
</g>
<!-- templewoodgreenspace&#45;&#45;digswellroad -->
<g id="edge55" class="edge"><title>templewoodgreenspace&#45;&#45;digswellroad</title>
<path fill="none" stroke="black" d="M1962.79,-1595.4C1982.48,-1634.4 2028.56,-1725.64 2048.1,-1764.33"/>
</g>
<!-- digswellpark -->
<g id="node58" class="node"><title>digswellpark</title>
<ellipse fill="none" stroke="black" cx="2348.08" cy="-1224.66" rx="71.0724" ry="18"/>
<text text-anchor="middle" x="2348.08" y="-1220.56" font-family="Times Roman,serif" font-size="14.00">digswellpark</text>
</g>
<!-- digswellroad&#45;&#45;digswellpark -->
<g id="edge57" class="edge"><title>digswellroad&#45;&#45;digswellpark</title>
<path fill="none" stroke="black" d="M2066.47,-1764.27C2110.29,-1680.31 2295.02,-1326.34 2338.77,-1242.51"/>
</g>
<!-- digswelllake -->
<g id="node60" class="node"><title>digswelllake</title>
<ellipse fill="none" stroke="black" cx="1513.73" cy="-2065.63" rx="68.9883" ry="18"/>
<text text-anchor="middle" x="1513.73" y="-2061.53" font-family="Times Roman,serif" font-size="14.00">digswelllake</text>
</g>
<!-- digswellroad&#45;&#45;digswelllake -->
<g id="edge61" class="edge"><title>digswellroad&#45;&#45;digswelllake</title>
<path fill="none" stroke="black" d="M2025.95,-1798.45C1930.11,-1848.44 1640.45,-1999.53 1544.77,-2049.44"/>
</g>
<!-- digswellpark&#45;&#45;digswelllake -->
<g id="edge59" class="edge"><title>digswellpark&#45;&#45;digswelllake</title>
<path fill="none" stroke="black" d="M2336.32,-1242.48C2300.69,-1295.86 2189.64,-1458.19 2079.2,-1577.32 1953.76,-1712.62 1908.91,-1732.91 1769.05,-1853.24 1683.38,-1926.94 1579.23,-2012.28 1535.12,-2048.24"/>
</g>
<!-- digswellparkroad -->
<g id="node63" class="node"><title>digswellparkroad</title>
<ellipse fill="none" stroke="black" cx="1754.61" cy="-2146.78" rx="93.1142" ry="18"/>
<text text-anchor="middle" x="1754.61" y="-2142.68" font-family="Times Roman,serif" font-size="14.00">digswellparkroad</text>
</g>
<!-- digswelllake&#45;&#45;digswellparkroad -->
<g id="edge63" class="edge"><title>digswelllake&#45;&#45;digswellparkroad</title>
<path fill="none" stroke="black" d="M1556.24,-2079.95C1598.79,-2094.28 1664.07,-2116.27 1708.01,-2131.08"/>
</g>
<!-- tewinwaterpark -->
<g id="node65" class="node"><title>tewinwaterpark</title>
<ellipse fill="none" stroke="black" cx="2080.76" cy="-2096.93" rx="88.9449" ry="18"/>
<text text-anchor="middle" x="2080.76" y="-2092.83" font-family="Times Roman,serif" font-size="14.00">tewinwaterpark</text>
</g>
<!-- digswellparkroad&#45;&#45;tewinwaterpark -->
<g id="edge65" class="edge"><title>digswellparkroad&#45;&#45;tewinwaterpark</title>
<path fill="none" stroke="black" d="M1827.81,-2135.59C1882.08,-2127.3 1955.68,-2116.05 2009.49,-2107.83"/>
</g>
<!-- hertfordroad -->
<g id="node67" class="node"><title>hertfordroad</title>
<ellipse fill="none" stroke="black" cx="1263.18" cy="-2406.03" rx="71.7694" ry="18"/>
<text text-anchor="middle" x="1263.18" y="-2401.93" font-family="Times Roman,serif" font-size="14.00">hertfordroad</text>
</g>
<!-- digswellparkroad&#45;&#45;hertfordroad -->
<g id="edge67" class="edge"><title>digswellparkroad&#45;&#45;hertfordroad</title>
<path fill="none" stroke="black" d="M1722.37,-2163.79C1632.9,-2210.99 1382.34,-2343.17 1294.27,-2389.63"/>
</g>
<!-- dawleywoodnorthfootpath -->
<g id="node69" class="node"><title>dawleywoodnorthfootpath</title>
<ellipse fill="none" stroke="black" cx="2393.04" cy="-1897.47" rx="138.976" ry="18"/>
<text text-anchor="middle" x="2393.04" y="-1893.37" font-family="Times Roman,serif" font-size="14.00">dawleywoodnorthfootpath</text>
</g>
<!-- tewinwaterpark&#45;&#45;dawleywoodnorthfootpath -->
<g id="edge69" class="edge"><title>tewinwaterpark&#45;&#45;dawleywoodnorthfootpath</title>
<path fill="none" stroke="black" d="M2107.65,-2079.75C2166.39,-2042.24 2305.62,-1953.31 2365.2,-1915.25"/>
</g>
<!-- dawleywoodsouthfootpath -->
<g id="node71" class="node"><title>dawleywoodsouthfootpath</title>
<ellipse fill="none" stroke="black" cx="1787.33" cy="-2424.61" rx="139.171" ry="18"/>
<text text-anchor="middle" x="1787.33" y="-2420.51" font-family="Times Roman,serif" font-size="14.00">dawleywoodsouthfootpath</text>
</g>
<!-- tewinwaterpark&#45;&#45;dawleywoodsouthfootpath -->
<g id="edge71" class="edge"><title>tewinwaterpark&#45;&#45;dawleywoodsouthfootpath</title>
<path fill="none" stroke="black" d="M2064.56,-2115.02C2013.26,-2172.31 1854.71,-2349.37 1803.48,-2406.58"/>
</g>
<!-- pennyfathersharmergreenlane -->
<g id="node75" class="node"><title>pennyfathersharmergreenlane</title>
<ellipse fill="none" stroke="black" cx="787.476" cy="-190.306" rx="157.238" ry="18"/>
<text text-anchor="middle" x="787.476" y="-186.206" font-family="Times Roman,serif" font-size="14.00">pennyfathersharmergreenlane</text>
</g>
<!-- dawleywoodnorthfootpath&#45;&#45;pennyfathersharmergreenlane -->
<g id="edge75" class="edge"><title>dawleywoodnorthfootpath&#45;&#45;pennyfathersharmergreenlane</title>
<path fill="none" stroke="black" d="M2376.82,-1879.52C2288.11,-1781.26 1852.71,-1298.5 1501.35,-899.858 1355.68,-734.59 1332.24,-681.235 1176.19,-525.735 1045.49,-395.494 872.006,-256.566 810.383,-208.153"/>
</g>
<!-- westleywood -->
<g id="node73" class="node"><title>westleywood</title>
<ellipse fill="none" stroke="black" cx="2287.24" cy="-2407.67" rx="75.0473" ry="18"/>
<text text-anchor="middle" x="2287.24" y="-2403.57" font-family="Times Roman,serif" font-size="14.00">westleywood</text>
</g>
<!-- dawleywoodsouthfootpath&#45;&#45;westleywood -->
<g id="edge73" class="edge"><title>dawleywoodsouthfootpath&#45;&#45;westleywood</title>
<path fill="none" stroke="black" d="M1921.96,-2420.05C2015.37,-2416.89 2136.3,-2412.79 2212.85,-2410.2"/>
</g>
<!-- barneswoodfootpathbranch -->
<g id="node77" class="node"><title>barneswoodfootpathbranch</title>
<ellipse fill="none" stroke="black" cx="471.071" cy="-175" rx="143.146" ry="18"/>
<text text-anchor="middle" x="471.071" y="-170.9" font-family="Times Roman,serif" font-size="14.00">barneswoodfootpathbranch</text>
</g>
<!-- pennyfathersharmergreenlane&#45;&#45;barneswoodfootpathbranch -->
<g id="edge77" class="edge"><title>pennyfathersharmergreenlane&#45;&#45;barneswoodfootpathbranch</title>
<path fill="none" stroke="black" d="M642.7,-183.302C630.008,-182.688 617.199,-182.069 604.605,-181.46"/>
</g>
<!-- harmergreenwoodfootpathbranch -->
<g id="node79" class="node"><title>harmergreenwoodfootpathbranch</title>
<ellipse fill="none" stroke="black" cx="841.979" cy="-393.99" rx="173.22" ry="18"/>
<text text-anchor="middle" x="841.979" y="-389.89" font-family="Times Roman,serif" font-size="14.00">harmergreenwoodfootpathbranch</text>
</g>
<!-- pennyfathersharmergreenlane&#45;&#45;harmergreenwoodfootpathbranch -->
<g id="edge79" class="edge"><title>pennyfathersharmergreenlane&#45;&#45;harmergreenwoodfootpathbranch</title>
<path fill="none" stroke="black" d="M792.313,-208.381C802.656,-247.034 826.82,-337.338 837.153,-375.954"/>
</g>
<!-- greatnorthroad -->
<g id="node81" class="node"><title>greatnorthroad</title>
<ellipse fill="none" stroke="black" cx="603.692" cy="-536.773" rx="84.7756" ry="18"/>
<text text-anchor="middle" x="603.692" y="-532.673" font-family="Times Roman,serif" font-size="14.00">greatnorthroad</text>
</g>
<!-- harmergreenwoodfootpathbranch&#45;&#45;greatnorthroad -->
<g id="edge81" class="edge"><title>harmergreenwoodfootpathbranch&#45;&#45;greatnorthroad</title>
<path fill="none" stroke="black" d="M812.281,-411.784C766.12,-439.445 677.744,-492.4 632.274,-519.647"/>
</g>
<!-- greatnorthroad&#45;&#45;robberybottomlaneetc -->
<g id="edge83" class="edge"><title>greatnorthroad&#45;&#45;robberybottomlaneetc</title>
<path fill="none" stroke="black" d="M601.198,-554.804C591.263,-626.654 554.552,-892.147 544.561,-964.398"/>
</g>
<!-- thedrivethenheathroad -->
<g id="node84" class="node"><title>thedrivethenheathroad</title>
<ellipse fill="none" stroke="black" cx="355.093" cy="-654.437" rx="123.188" ry="18"/>
<text text-anchor="middle" x="355.093" y="-650.337" font-family="Times Roman,serif" font-size="14.00">thedrivethenheathroad</text>
</g>
<!-- greatnorthroad&#45;&#45;thedrivethenheathroad -->
<g id="edge85" class="edge"><title>greatnorthroad&#45;&#45;thedrivethenheathroad</title>
<path fill="none" stroke="black" d="M568.863,-553.258C522.093,-575.395 439.372,-614.547 391.707,-637.108"/>
</g>
<!-- legsandstockingswood -->
<g id="node86" class="node"><title>legsandstockingswood</title>
<ellipse fill="none" stroke="black" cx="125.629" cy="-338.008" rx="118.13" ry="18"/>
<text text-anchor="middle" x="125.629" y="-333.908" font-family="Times Roman,serif" font-size="14.00">legsandstockingswood</text>
</g>
<!-- thedrivethenheathroad&#45;&#45;legsandstockingswood -->
<g id="edge87" class="edge"><title>thedrivethenheathroad&#45;&#45;legsandstockingswood</title>
<path fill="none" stroke="black" d="M342.098,-636.518C301.805,-580.954 179.251,-411.952 138.765,-356.123"/>
</g>
<!-- greatercaptainswood -->
<g id="node91" class="node"><title>greatercaptainswood</title>
<ellipse fill="none" stroke="black" cx="2723" cy="-307" rx="112.071" ry="18"/>
<text text-anchor="middle" x="2723" y="-302.9" font-family="Times Roman,serif" font-size="14.00">greatercaptainswood</text>
</g>
<!-- landtowestofgreatercaptainswood -->
<g id="node93" class="node"><title>landtowestofgreatercaptainswood</title>
<ellipse fill="none" stroke="black" cx="2723" cy="-235" rx="175.11" ry="18"/>
<text text-anchor="middle" x="2723" y="-230.9" font-family="Times Roman,serif" font-size="14.00">landtowestofgreatercaptainswood</text>
</g>
<!-- greatercaptainswood&#45;&#45;landtowestofgreatercaptainswood -->
<g id="edge93" class="edge"><title>greatercaptainswood&#45;&#45;landtowestofgreatercaptainswood</title>
<path fill="none" stroke="black" d="M2723,-288.831C2723,-278 2723,-264.288 2723,-253.413"/>
</g>
<!-- b195 -->
<g id="node94" class="node"><title>b195</title>
<ellipse fill="none" stroke="black" cx="2723" cy="-163" rx="36.1339" ry="18"/>
<text text-anchor="middle" x="2723" y="-158.9" font-family="Times Roman,serif" font-size="14.00">b195</text>
</g>
<!-- b195&#45;&#45;landtowestofgreatercaptainswood -->
<g id="edge95" class="edge"><title>b195&#45;&#45;landtowestofgreatercaptainswood</title>
<path fill="none" stroke="black" d="M2723,-181.169C2723,-192 2723,-205.712 2723,-216.587"/>
</g>
<!-- colegreenlane -->
<g id="node97" class="node"><title>colegreenlane</title>
<ellipse fill="none" stroke="black" cx="2723" cy="-91" rx="78.0216" ry="18"/>
<text text-anchor="middle" x="2723" y="-86.9" font-family="Times Roman,serif" font-size="14.00">colegreenlane</text>
</g>
<!-- b195&#45;&#45;colegreenlane -->
<g id="edge97" class="edge"><title>b195&#45;&#45;colegreenlane</title>
<path fill="none" stroke="black" d="M2723,-144.831C2723,-134 2723,-120.288 2723,-109.413"/>
</g>
<!-- roundaboutsouthtohowlandsandcommonslnr -->
<g id="node99" class="node"><title>roundaboutsouthtohowlandsandcommonslnr</title>
<ellipse fill="none" stroke="black" cx="2723" cy="-19" rx="225.837" ry="18"/>
<text text-anchor="middle" x="2723" y="-14.9" font-family="Times Roman,serif" font-size="14.00">roundaboutsouthtohowlandsandcommonslnr</text>
</g>
<!-- colegreenlane&#45;&#45;roundaboutsouthtohowlandsandcommonslnr -->
<g id="edge99" class="edge"><title>colegreenlane&#45;&#45;roundaboutsouthtohowlandsandcommonslnr</title>
<path fill="none" stroke="black" d="M2723,-72.8314C2723,-62 2723,-48.2876 2723,-37.4133"/>
</g>
<!-- codicoteroad&#45;&#45;codicote -->
<g id="edge105" class="edge"><title>codicoteroad&#45;&#45;codicote</title>
<path fill="none" stroke="black" d="M893.929,-1067.71C860.342,-1103.46 784.389,-1184.31 751.164,-1219.68"/>
</g>
<!-- nodewood -->
<g id="node103" class="node"><title>nodewood</title>
<ellipse fill="none" stroke="black" cx="556.696" cy="-1523.69" rx="61.1496" ry="18"/>
<text text-anchor="middle" x="556.696" y="-1519.59" font-family="Times Roman,serif" font-size="14.00">nodewood</text>
</g>
<!-- codicoteroad&#45;&#45;nodewood -->
<g id="edge103" class="edge"><title>codicoteroad&#45;&#45;nodewood</title>
<path fill="none" stroke="black" d="M899.343,-1068.01C878.297,-1101.66 830.704,-1176.5 786.694,-1236.78 709.907,-1341.97 609.448,-1461.7 571.805,-1506"/>
</g>
<!-- saintalbansroad&#45;&#45;dowdellfishbladderwood -->
<g id="edge109" class="edge"><title>saintalbansroad&#45;&#45;dowdellfishbladderwood</title>
<path fill="none" stroke="black" d="M1311.27,-1682.87C1350.96,-1642.75 1447,-1545.66 1486.78,-1505.45"/>
</g>
<!-- wheathampstead -->
<g id="node109" class="node"><title>wheathampstead</title>
<ellipse fill="none" stroke="black" cx="880.458" cy="-1755.93" rx="95.1989" ry="18"/>
<text text-anchor="middle" x="880.458" y="-1751.83" font-family="Times Roman,serif" font-size="14.00">wheathampstead</text>
</g>
<!-- saintalbansroad&#45;&#45;wheathampstead -->
<g id="edge111" class="edge"><title>saintalbansroad&#45;&#45;wheathampstead</title>
<path fill="none" stroke="black" d="M1220.26,-1710.49C1146.52,-1720.35 1033.29,-1735.49 958.081,-1745.55"/>
</g>
<!-- pathalongriverlea -->
<g id="node111" class="node"><title>pathalongriverlea</title>
<ellipse fill="none" stroke="black" cx="1120.15" cy="-2032.01" rx="95.8938" ry="18"/>
<text text-anchor="middle" x="1120.15" y="-2027.91" font-family="Times Roman,serif" font-size="14.00">pathalongriverlea</text>
</g>
<!-- wheathampstead&#45;&#45;pathalongriverlea -->
<g id="edge113" class="edge"><title>wheathampstead&#45;&#45;pathalongriverlea</title>
<path fill="none" stroke="black" d="M896.185,-1774.05C939.72,-1824.19 1061.45,-1964.4 1104.68,-2014.19"/>
</g>
<!-- wheathampsteadroadinharpenden -->
<g id="node130" class="node"><title>wheathampsteadroadinharpenden</title>
<ellipse fill="none" stroke="black" cx="712.464" cy="-2306.48" rx="176" ry="18"/>
<text text-anchor="middle" x="712.464" y="-2302.38" font-family="Times Roman,serif" font-size="14.00">wheathampsteadroadinharpenden</text>
</g>
<!-- wheathampstead&#45;&#45;wheathampsteadroadinharpenden -->
<g id="edge131" class="edge"><title>wheathampstead&#45;&#45;wheathampsteadroadinharpenden</title>
<path fill="none" stroke="black" d="M874.964,-1773.94C849.545,-1857.24 743.509,-2204.73 718,-2288.33"/>
</g>
<!-- wheathampsteadlocalnationalreserve -->
<g id="node132" class="node"><title>wheathampsteadlocalnationalreserve</title>
<ellipse fill="none" stroke="black" cx="235.095" cy="-2202.95" rx="191.093" ry="18"/>
<text text-anchor="middle" x="235.095" y="-2198.85" font-family="Times Roman,serif" font-size="14.00">wheathampsteadlocalnationalreserve</text>
</g>
<!-- wheathampstead&#45;&#45;wheathampsteadlocalnationalreserve -->
<g id="edge133" class="edge"><title>wheathampstead&#45;&#45;wheathampsteadlocalnationalreserve</title>
<path fill="none" stroke="black" d="M855.159,-1773.46C752.154,-1844.8 364.888,-2113.05 260.92,-2185.07"/>
</g>
<!-- brocketparkfootpath -->
<g id="node112" class="node"><title>brocketparkfootpath</title>
<ellipse fill="none" stroke="black" cx="2861.15" cy="-681.952" rx="109.097" ry="18"/>
<text text-anchor="middle" x="2861.15" y="-677.852" font-family="Times Roman,serif" font-size="14.00">brocketparkfootpath</text>
</g>
<!-- hammondslane -->
<g id="node114" class="node"><title>hammondslane</title>
<ellipse fill="none" stroke="black" cx="2537.49" cy="-643" rx="84.0808" ry="18"/>
<text text-anchor="middle" x="2537.49" y="-638.9" font-family="Times Roman,serif" font-size="14.00">hammondslane</text>
</g>
<!-- brocketparkfootpath&#45;&#45;hammondslane -->
<g id="edge115" class="edge"><title>brocketparkfootpath&#45;&#45;hammondslane</title>
<path fill="none" stroke="black" d="M2772.71,-671.308C2721.9,-665.192 2658.83,-657.603 2610.8,-651.822"/>
</g>
<!-- titnolswoodfootpath -->
<g id="node116" class="node"><title>titnolswoodfootpath</title>
<ellipse fill="none" stroke="black" cx="2449.5" cy="-871.764" rx="107.902" ry="18"/>
<text text-anchor="middle" x="2449.5" y="-867.664" font-family="Times Roman,serif" font-size="14.00">titnolswoodfootpath</text>
</g>
<!-- hammondslane&#45;&#45;titnolswoodfootpath -->
<g id="edge117" class="edge"><title>hammondslane&#45;&#45;titnolswoodfootpath</title>
<path fill="none" stroke="black" d="M2530.59,-660.951C2514.18,-703.61 2472.99,-810.688 2456.49,-853.581"/>
</g>
<!-- symondshydegreatwoodfootpath -->
<g id="node118" class="node"><title>symondshydegreatwoodfootpath</title>
<ellipse fill="none" stroke="black" cx="2667.42" cy="-757.909" rx="168.856" ry="18"/>
<text text-anchor="middle" x="2667.42" y="-753.809" font-family="Times Roman,serif" font-size="14.00">symondshydegreatwoodfootpath</text>
</g>
<!-- hammondslane&#45;&#45;symondshydegreatwoodfootpath -->
<g id="edge119" class="edge"><title>hammondslane&#45;&#45;symondshydegreatwoodfootpath</title>
<path fill="none" stroke="black" d="M2557.51,-660.703C2581.85,-682.233 2622.71,-718.372 2647.16,-739.997"/>
</g>
<!-- footpathpastsleevehallwood -->
<g id="node120" class="node"><title>footpathpastsleevehallwood</title>
<ellipse fill="none" stroke="black" cx="2704.38" cy="-851.462" rx="145.925" ry="18"/>
<text text-anchor="middle" x="2704.38" y="-847.362" font-family="Times Roman,serif" font-size="14.00">footpathpastsleevehallwood</text>
</g>
<!-- symondshydegreatwoodfootpath&#45;&#45;footpathpastsleevehallwood -->
<g id="edge121" class="edge"><title>symondshydegreatwoodfootpath&#45;&#45;footpathpastsleevehallwood</title>
<path fill="none" stroke="black" d="M2674.54,-775.947C2681.09,-792.513 2690.73,-816.931 2697.27,-833.479"/>
</g>
<!-- coopersgreensandgravelpits -->
<g id="node122" class="node"><title>coopersgreensandgravelpits</title>
<ellipse fill="none" stroke="black" cx="2679.58" cy="-974.042" rx="145.23" ry="18"/>
<text text-anchor="middle" x="2679.58" y="-969.942" font-family="Times Roman,serif" font-size="14.00">coopersgreensandgravelpits</text>
</g>
<!-- footpathpastsleevehallwood&#45;&#45;coopersgreensandgravelpits -->
<g id="edge123" class="edge"><title>footpathpastsleevehallwood&#45;&#45;coopersgreensandgravelpits</title>
<path fill="none" stroke="black" d="M2700.72,-869.549C2696.03,-892.725 2687.95,-932.669 2683.26,-955.881"/>
</g>
<!-- hatfieldroada1057 -->
<g id="node124" class="node"><title>hatfieldroada1057</title>
<ellipse fill="none" stroke="black" cx="2889.3" cy="-927.699" rx="98.8688" ry="18"/>
<text text-anchor="middle" x="2889.3" y="-923.599" font-family="Times Roman,serif" font-size="14.00">hatfieldroada1057</text>
</g>
<!-- coopersgreensandgravelpits&#45;&#45;hatfieldroada1057 -->
<g id="edge125" class="edge"><title>coopersgreensandgravelpits&#45;&#45;hatfieldroada1057</title>
<path fill="none" stroke="black" d="M2750.88,-958.288C2775.34,-952.882 2802.53,-946.875 2826.28,-941.625"/>
</g>
<!-- bramfieldparkwoodpathnetwork -->
<g id="node128" class="node"><title>bramfieldparkwoodpathnetwork</title>
<ellipse fill="none" stroke="black" cx="2276.26" cy="-374.154" rx="166.077" ry="18"/>
<text text-anchor="middle" x="2276.26" y="-370.054" font-family="Times Roman,serif" font-size="14.00">bramfieldparkwoodpathnetwork</text>
</g>
<!-- tewin&#45;&#45;bramfieldparkwoodpathnetwork -->
<g id="edge129" class="edge"><title>tewin&#45;&#45;bramfieldparkwoodpathnetwork</title>
<path fill="none" stroke="black" d="M1955.91,-672.116C2013.64,-618.414 2196.26,-448.561 2256.66,-392.388"/>
</g>
</g>
</svg>
